<?xml version="1.0" standalone="no"?>
<!DOCTYPE svg PUBLIC "-//W3C//DTD SVG 20010904//EN"
 "http://www.w3.org/TR/2001/REC-SVG-20010904/DTD/svg10.dtd">
<svg version="1.0" xmlns="http://www.w3.org/2000/svg"
 width="225.000000pt" height="225.000000pt" viewBox="0 0 225.000000 225.000000"
 preserveAspectRatio="xMidYMid meet">

<g transform="translate(0.000000,225.000000) scale(0.100000,-0.100000)"
fill="#000000" stroke="none">
<path d="M1020 2104 c-14 -2 -52 -9 -85 -15 -199 -34 -396 -139 -546 -292
-393 -400 -389 -1053 10 -1448 198 -195 450 -299 726 -299 276 0 528 104 726
299 310 307 391 782 199 1176 -142 292 -397 492 -715 561 -70 15 -268 27 -315
18z m335 -119 c176 -44 314 -125 442 -259 176 -183 263 -398 263 -652 0 -223
-73 -425 -217 -599 -49 -60 -156 -155 -173 -155 -5 0 -10 69 -12 153 -3 151
-3 152 -37 215 -41 75 -103 135 -179 170 l-57 27 -260 0 -260 0 -66 -32 c-75
-37 -135 -96 -176 -175 -26 -50 -28 -61 -31 -205 -2 -84 -7 -153 -12 -153 -17
0 -124 95 -173 155 -144 174 -217 376 -217 599 0 254 87 469 263 652 236 247
570 343 902 259z m57 -1218 c32 -16 73 -46 92 -69 56 -65 66 -109 66 -290 l0
-159 -74 -35 c-115 -55 -242 -77 -411 -71 -157 4 -238 21 -337 71 l-63 31 -3
155 c-2 95 1 171 8 195 25 88 90 154 183 187 45 16 80 18 267 16 213 -3 216
-3 272 -31z"/>
<path d="M1008 1761 c-111 -36 -188 -106 -239 -215 -29 -61 -32 -79 -32 -155
1 -178 92 -308 262 -372 84 -31 203 -25 291 17 255 120 303 452 93 644 -97 88
-252 122 -375 81z m238 -100 c91 -40 155 -122 172 -221 35 -188 -117 -359
-308 -348 -182 10 -310 172 -278 350 12 64 29 98 75 149 85 94 221 122 339 70z"/>
</g>
</svg>
